HIERARCHY
ROOT Hips
{
	OFFSET -0.000012 104.274902 0.000012
	CHANNELS 6 Xposition Yposition Zposition Xrotation Yrotation Zrotation
	JOINT Spine
	{
		OFFSET 0.131523 10.181549 0.000001
		CHANNELS 6 Xposition Yposition Zposition Xrotation Yrotation Zrotation
		JOINT Spine2
		{
			OFFSET -2.841345 19.114777 0.000002
			CHANNELS 6 Xposition Yposition Zposition Xrotation Yrotation Zrotation
			JOINT Neck
			{
				OFFSET -2.049024 16.740372 0.000002
				CHANNELS 6 Xposition Yposition Zposition Xrotation Yrotation Zrotation
				JOINT Head
				{
					OFFSET 1.684975 9.617859 0.000001
					CHANNELS 6 Xposition Yposition Zposition Xrotation Yrotation Zrotation
					End Site
					{
						OFFSET -2.828249 23.106567 0.000003
					}
				}
			}
			JOINT RightShoulder
			{
				OFFSET -2.160842 11.014877 4.570002
				CHANNELS 6 Xposition Yposition Zposition Xrotation Yrotation Zrotation
				JOINT RightArm
				{
					OFFSET -2.232106 -0.524796 10.592867
					CHANNELS 6 Xposition Yposition Zposition Xrotation Yrotation Zrotation
					JOINT RightForeArm
					{
						OFFSET -0.000004 0.000000 27.841496
						CHANNELS 6 Xposition Yposition Zposition Xrotation Yrotation Zrotation
						JOINT RightHand
						{
							OFFSET -0.000003 -0.000015 28.328812
							CHANNELS 6 Xposition Yposition Zposition Xrotation Yrotation Zrotation
							End Site
							{
								OFFSET -0.000001 0.000000 8.226791
							}
						}
					}
				}
			}
			JOINT LeftShoulder
			{
				OFFSET -2.160816 11.014679 -4.570400
				CHANNELS 6 Xposition Yposition Zposition Xrotation Yrotation Zrotation
				JOINT LeftArm
				{
					OFFSET -2.232115 -0.524597 -10.592373
					CHANNELS 6 Xposition Yposition Zposition Xrotation Yrotation Zrotation
					JOINT LeftForeArm
					{
						OFFSET 0.000003 0.000000 -27.841488
						CHANNELS 6 Xposition Yposition Zposition Xrotation Yrotation Zrotation
						JOINT LeftHand
						{
							OFFSET 0.000001 0.000015 -28.328808
							CHANNELS 6 Xposition Yposition Zposition Xrotation Yrotation Zrotation
							End Site
							{
								OFFSET 0.000001 0.000000 -8.227859
							}
						}
					}
				}
			}
		}
	}
	JOINT RightUpLeg
	{
		OFFSET -1.599544 -6.751701 8.207800
		CHANNELS 6 Xposition Yposition Zposition Xrotation Yrotation Zrotation
		JOINT RightLeg
		{
			OFFSET 0.345939 -44.370152 -0.000010
			CHANNELS 6 Xposition Yposition Zposition Xrotation Yrotation Zrotation
			JOINT RightFoot
			{
				OFFSET -3.043530 -44.423664 -0.000010
				CHANNELS 6 Xposition Yposition Zposition Xrotation Yrotation Zrotation
				JOINT RightToeBase
				{
					OFFSET 10.710592 -8.728689 -0.000001
					CHANNELS 6 Xposition Yposition Zposition Xrotation Yrotation Zrotation
					End Site
					{
						OFFSET 9.278101 -0.000664 0.000000
					}
				}
			}
		}
	}
	JOINT LeftUpLeg
	{
		OFFSET -1.599543 -6.751701 -8.207800
		CHANNELS 6 Xposition Yposition Zposition Xrotation Yrotation Zrotation
		JOINT LeftLeg
		{
			OFFSET 0.346945 -44.370037 -0.000010
			CHANNELS 6 Xposition Yposition Zposition Xrotation Yrotation Zrotation
			JOINT LeftFoot
			{
				OFFSET -3.044383 -44.423611 -0.000010
				CHANNELS 6 Xposition Yposition Zposition Xrotation Yrotation Zrotation
				JOINT LeftToeBase
				{
					OFFSET 10.710592 -8.728688 -0.000001
					CHANNELS 6 Xposition Yposition Zposition Xrotation Yrotation Zrotation
					End Site
					{
						OFFSET 9.278101 -0.000679 0.000000
					}
				}
			}
		}
	}
}
MOTION
Frames: 8
Frame Time: 0.041667
1.885839 94.853233 -0.355974 -4.750804 -5.128150 -8.151459 0.131526 10.181535 0.000002 5.122485 13.493204 -13.899823 -2.841342 19.114777 0.000002 1.114441 1.849345 3.335142 -2.049022 16.740362 0.000003 -3.241377 -2.238465 -4.514672 1.684973 9.617858 0.000002 1.999098 -6.364225 19.896601 -2.160836 11.014882 4.570004 4.261398 4.673967 -1.758116 -2.232110 -0.524800 10.592885 50.806895 16.011485 1.277823 -0.000006 0.000025 27.841499 -0.000531 92.441788 0.001218 0.000004 0.000027 28.328814 -21.370835 0.496628 14.506412 -2.160819 11.014688 -4.570397 -4.506011 -8.150052 -3.256596 -2.232117 -0.524598 -10.592371 -43.144720 53.885084 -36.657711 -0.000004 0.000008 -27.841490 -0.000065 -72.400545 -0.000198 -0.000003 0.000030 -28.328815 -2.389977 3.611307 9.526931 -1.599542 -6.751727 8.207802 7.034904 -5.212507 1.196584 0.345939 -44.370140 -0.000008 1.358406 9.270249 -33.422233 -3.043532 -44.423660 -0.000008 -9.530725 6.246693 12.059583 10.710590 -8.728688 -0.000002 0.000003 -0.000012 31.272287 -1.599544 -6.751698 -8.207800 7.151951 6.847595 45.960032 0.346952 -44.370049 -0.000008 6.780269 -2.864153 -124.664462 -3.044387 -44.423615 -0.000010 5.029270 2.698425 -1.398668 10.710592 -8.728689 0.000000 0.000004 0.000003 -0.000033 
29.081654 97.185883 -0.007591 -2.469039 -4.228670 -8.768462 0.131520 10.181533 0.000002 1.657120 15.983336 -7.711599 -2.841341 19.114771 0.000003 0.884823 2.060867 1.624444 -2.049045 16.740398 -0.000000 -3.067147 -2.946421 -5.868980 1.684965 9.617891 0.000002 2.847157 -10.267657 17.649962 -2.160842 11.014879 4.570003 3.204010 4.015934 -1.499790 -2.232101 -0.524783 10.592866 48.186261 13.326097 -0.105122 -0.000015 0.000013 27.841497 -0.000008 115.462545 0.000204 -0.000004 -0.000009 28.328827 -19.232056 -18.529506 -5.716360 -2.160832 11.014727 -4.570400 -3.309415 -7.919915 -2.971527 -2.232124 -0.524581 -10.592373 -31.647265 60.026202 -44.708878 0.000014 0.000007 -27.841486 -0.000134 -82.308752 -0.000385 0.000004 0.000019 -28.328825 -5.156004 7.812520 15.082260 -1.599548 -6.751709 8.207803 3.529674 -5.216450 -18.953534 0.345943 -44.370152 -0.000010 -3.689062 9.003013 -13.929459 -3.043535 -44.423668 -0.000009 7.281367 -0.150614 -24.745914 10.710593 -8.728687 -0.000001 -0.900159 -0.312388 19.730113 -1.599536 -6.751703 -8.207798 8.269151 1.995799 58.534434 0.346963 -44.370052 -0.000010 8.213284 5.427133 -95.065496 -3.044384 -44.423607 -0.000009 10.658525 -1.181601 -6.086353 10.710591 -8.728687 -0.000002 -0.000003 0.000001 0.009736 
53.468307 99.819397 0.408060 -1.740315 -3.259916 -10.476868 0.131545 10.181538 0.000001 0.789615 16.939047 -2.898513 -2.841334 19.114765 0.000002 0.068030 2.213572 0.140196 -2.049021 16.740368 0.000003 -2.860078 -3.432767 -4.493645 1.684959 9.617796 0.000002 3.159586 -12.346037 16.408375 -2.160837 11.014906 4.570002 3.280647 4.027484 -1.505474 -2.232104 -0.524755 10.592881 52.432968 9.127134 -5.183136 0.000001 0.000006 27.841496 0.000015 121.115373 0.000183 -0.000001 0.000003 28.328815 -19.029870 -19.891492 -13.933026 -2.160824 11.014718 -4.570398 -3.238331 -8.037423 -2.989555 -2.232118 -0.524599 -10.592381 -39.522756 59.810689 -34.076237 0.000010 0.000013 -27.841488 -0.000172 -79.693595 -0.000361 0.000005 0.000013 -28.328812 -0.283539 6.068712 17.739746 -1.599534 -6.751700 8.207801 1.903410 -7.108253 -18.318984 0.345944 -44.370144 -0.000010 -1.292667 12.499382 -33.343201 -3.043536 -44.423660 -0.000010 12.067903 -3.203421 -27.905317 10.710593 -8.728685 -0.000002 0.000001 -0.000001 -0.095134 -1.599529 -6.751706 -8.207801 10.183553 -1.963880 55.996438 0.346949 -44.370033 -0.000007 3.891949 13.031767 -59.339133 -3.044383 -44.423607 -0.000008 4.843977 0.217837 1.934732 10.710592 -8.728691 0.000001 0.000002 0.000002 0.279047 
78.055923 100.058144 0.668961 -1.413828 -1.346223 -8.930646 0.131529 10.181548 0.000001 0.955008 14.719524 -5.325825 -2.841351 19.114756 0.000002 -0.046180 1.928814 0.056504 -2.049016 16.740410 0.000003 -3.816484 -3.337337 -2.831527 1.684991 9.617853 0.000007 3.708820 -11.856444 17.219373 -2.160834 11.014932 4.570004 3.215677 4.490030 -1.596924 -2.232098 -0.524765 10.592877 60.001518 0.935167 -12.222495 -0.000018 -0.000004 27.841515 0.000035 114.952794 0.000159 0.000001 0.000004 28.328831 -20.022604 -12.680683 -11.052136 -2.160818 11.014710 -4.570403 -6.728533 -9.331694 -4.068024 -2.232115 -0.524592 -10.592379 -55.100161 51.224937 -15.620166 -0.000006 0.000010 -27.841486 -0.000053 -76.250681 -0.000198 -0.000002 0.000013 -28.328802 9.931117 0.357529 22.382614 -1.599557 -6.751690 8.207800 4.113535 -6.398653 -14.072121 0.345940 -44.370155 -0.000009 -0.748350 9.137662 -64.385359 -3.043531 -44.423664 -0.000009 13.316185 -3.968558 -26.794388 10.710591 -8.728689 -0.000001 0.000004 0.000006 -0.173524 -1.599536 -6.751703 -8.207800 6.209463 -1.573788 46.354482 0.346948 -44.370033 -0.000008 -3.562873 7.319888 -28.124318 -3.044394 -44.423603 -0.000011 -0.974635 -0.012855 8.565765 10.710581 -8.728690 -0.000001 0.000003 -0.000001 0.222769 
101.582253 97.697311 0.496215 0.810731 3.377110 -6.666737 0.131511 10.181572 0.000003 -2.436979 8.196686 -10.489600 -2.841350 19.114763 0.000002 1.453509 0.991092 1.373008 -2.049021 16.740318 0.000002 -5.327415 -2.661549 -2.785246 1.684971 9.617848 0.000003 4.023004 -9.437409 19.610385 -2.160850 11.014899 4.569999 3.608733 5.115847 -1.762548 -2.232103 -0.524791 10.592884 63.594546 -12.829248 -16.609519 -0.000001 0.000003 27.841509 -0.000102 102.437224 0.000316 0.000003 -0.000006 28.328823 -19.673680 -1.427620 -12.656919 -2.160822 11.014688 -4.570399 -10.032925 -10.859608 -5.363632 -2.232123 -0.524581 -10.592390 -61.845314 37.873180 -7.933255 -0.000014 0.000021 -27.841475 -0.000140 -82.582117 -0.000364 0.000005 0.000023 -28.328808 13.706374 5.179938 26.059979 -1.599554 -6.751697 8.207800 3.008922 -5.257886 -6.037209 0.345947 -44.370144 -0.000008 -5.215144 1.348308 -98.043541 -3.043529 -44.423653 -0.000010 6.133189 -1.550086 -22.302154 10.710588 -8.728687 -0.000001 -0.000003 -0.000001 -0.096399 -1.599544 -6.751679 -8.207800 -2.264444 0.203591 39.645399 0.346933 -44.370026 -0.000010 -4.072111 6.351551 -20.528543 -3.044381 -44.423603 -0.000008 -1.645891 0.117816 4.389658 10.710588 -8.728674 -0.000001 -0.000003 -0.000005 1.974220 
124.740616 95.252747 0.152238 4.323521 7.073168 -7.586640 0.131530 10.181540 0.000004 -7.412484 1.017552 -14.321145 -2.841362 19.114767 0.000002 3.381199 -0.007403 3.249432 -2.048981 16.740353 0.000002 -5.389326 -1.628328 -3.170473 1.684960 9.617881 0.000004 3.635871 -5.794987 22.371988 -2.160822 11.014850 4.570000 4.253232 5.989328 -2.010556 -2.232099 -0.524791 10.592909 63.405875 -27.076936 -14.335901 0.000000 0.000015 27.841473 0.000499 85.946060 -0.000745 0.000001 -0.000006 28.328810 -17.949244 -0.814357 -18.338979 -2.160792 11.014684 -4.570402 -10.698124 -11.199480 -5.674280 -2.232111 -0.524595 -10.592384 -61.522294 18.447158 -7.258702 0.000011 0.000016 -27.841471 0.000502 -97.149776 0.000789 0.000022 0.000008 -28.328798 10.683076 11.953012 12.408329 -1.599546 -6.751712 8.207803 -3.216996 -6.741605 8.653155 0.345935 -44.370152 -0.000008 -4.943808 -0.401822 -128.266554 -3.043524 -44.423664 -0.000007 -5.722212 0.930710 -9.307754 10.710605 -8.728679 -0.000002 -0.000001 -0.000003 -0.216574 -1.599546 -6.751686 -8.207802 -6.887932 -1.662840 38.274297 0.346948 -44.370029 -0.000007 -3.647545 4.441923 -39.949585 -3.044392 -44.423615 -0.000008 8.207715 0.368295 8.872501 10.710591 -8.728690 -0.000000 0.000001 -0.000007 0.885847 
146.473511 93.202927 -0.233073 8.291902 7.293316 -10.522683 0.131528 10.181568 0.000002 -11.873189 -4.942443 -14.325871 -2.841359 19.114756 0.000000 4.431411 -0.832392 2.500715 -2.049032 16.740330 -0.000000 -3.647333 -0.536178 -2.122014 1.684940 9.617857 0.000001 1.519554 -0.955723 23.152723 -2.160830 11.014887 4.570000 3.346104 4.102844 -1.590982 -2.232120 -0.524810 10.592876 61.254817 -36.197547 -12.175441 0.000004 0.000005 27.841499 0.000096 78.536049 -0.000095 0.000002 0.000004 28.328815 -15.527284 -17.824699 -20.401270 -2.160806 11.014692 -4.570398 -7.972553 -8.219083 -3.977026 -2.232133 -0.524602 -10.592378 -60.296862 -9.209451 -3.077257 0.000002 0.000013 -27.841476 0.000196 -104.432315 0.000307 0.000004 0.000026 -28.328821 6.378539 7.003349 -4.793791 -1.599532 -6.751707 8.207806 -10.369790 -6.716338 42.218584 0.345937 -44.370167 -0.000009 -3.747874 2.210642 -146.323238 -3.043534 -44.423664 -0.000010 -9.034999 1.056925 -6.200751 10.710588 -8.728687 -0.000000 -0.000002 0.000003 -0.211049 -1.599533 -6.751701 -8.207800 -7.676263 -0.189907 29.126403 0.346958 -44.370022 -0.000010 -9.915903 2.950560 -46.482627 -3.044366 -44.423603 -0.000010 10.126275 1.470505 26.528188 10.710608 -8.728694 -0.000001 0.000000 -0.000005 2.212198 
173.609085 93.062546 -0.269486 7.059988 7.358105 -12.297262 0.131534 10.181551 -0.000001 -10.841247 -11.623897 -8.417465 -2.841319 19.114773 0.000000 4.092344 -1.771973 -1.494859 -2.049016 16.740377 -0.000000 -1.804596 0.579841 -0.454733 1.684952 9.617871 0.000002 -1.569425 4.758211 21.015321 -2.160827 11.014868 4.570004 -0.192988 1.053399 -0.705970 -2.232122 -0.524804 10.592893 51.412275 -45.881779 -24.170516 0.000011 0.000011 27.841480 0.000119 85.123288 -0.000272 -0.000002 0.000017 28.328815 -14.213262 -25.159447 -10.756504 -2.160804 11.014686 -4.570405 -3.887596 -4.263452 -2.099947 -2.232100 -0.524596 -10.592385 -53.745140 -32.122120 8.480293 -0.000014 0.000009 -27.841482 0.000171 -100.667549 0.000342 0.000017 0.000027 -28.328836 4.266519 -1.888336 -2.540896 -1.599545 -6.751702 8.207800 -12.379305 -2.013319 57.815659 0.345946 -44.370144 -0.000008 -6.044858 1.005238 -133.505555 -3.043527 -44.423656 -0.000008 -6.349231 0.027179 5.670712 10.710614 -8.728680 0.000005 -0.000003 0.000002 0.154724 -1.599531 -6.751697 -8.207804 -2.665763 8.614875 9.529102 0.346943 -44.370033 -0.000007 -12.408540 -3.696212 -39.332228 -3.044367 -44.423607 -0.000009 13.747403 -5.211571 22.891857 10.710612 -8.728690 -0.000001 -0.789861 -0.148673 15.200441 
